<svg id="Warstwa_1" data-name="Warstwa 1" xmlns="http://www.w3.org/2000/svg" {{ with .width }} width="{{ . }}"{{ end }}{{ with .height }} height="{{ . }}"{{ end }}{{ with .class }} class="{{ . }}"{{ end }} viewBox="0 0 376 178">
  <defs>
    <style>.cls-2{fill:currentColor}</style>
  </defs>
  <path class="cls-2" d="M128 56.1244L89 33.6077a12 12 0 00-12 0L38 56.1243a12.0339 12.0339 0 00-6 10.3924V111.55a12.0333 12.0333 0 006 10.3923l39 22.5167a12 12 0 0012 0l39-22.5167a12.0333 12.0333 0 006-10.3923V66.5167a12.0336 12.0336 0 00-6-10.3923zm-2 55.4256a4 4 0 01-2 3.4641l-39 22.5167a4 4 0 01-4 0l-39-22.5167a4 4 0 01-2-3.4641V66.5167a4 4 0 012-3.4641l39-22.5167a4 4 0 014 0l39 22.5167a4 4 0 012 3.4641z"/>
  <path class="cls-2" d="M106.0216 102.0713h-2.866a3.9993 3.9993 0 00-1.9246.4935L83.95 112.05 64 100.5315V77.554l19.95-11.5186 17.2894 9.455a4 4 0 001.9192.4905h2.8632a2 2 0 002-2v-2.7118a2 2 0 00-1.04-1.7547L87.793 59.0188a8.0391 8.0391 0 00-7.8428.09L60 70.6262a8.0245 8.0245 0 00-4 6.9287v22.976a8 8 0 004 6.9283l19.95 11.5186a8.0429 8.0429 0 007.8433.0879l19.19-10.5312a2 2 0 001.0378-1.7533v-2.71a2 2 0 00-1.9995-1.9999z"/>
  <g>
    <path class="cls-2" d="M200.7447 65.4285a15.0166 15.0166 0 00-15 14.9995v17.2774a15 15 0 1030 0V80.428a15.0166 15.0166 0 00-15-14.9995zm7 32.2769a7 7 0 11-14 0V80.428a7 7 0 0114 0zM164.0788 73.4878a7.01 7.01 0 017.8681 6.0752.9893.9893 0 00.9843.865h6.0305a1.0109 1.0109 0 00.9987-1.0971 15.0183 15.0183 0 00-15.7162-13.8837A15.288 15.288 0 00150 80.8635V97.27a15.288 15.288 0 0014.2441 15.4163A15.0184 15.0184 0 00179.96 98.8025a1.0108 1.0108 0 00-.9987-1.0971h-6.0305a.9893.9893 0 00-.9843.865 7.01 7.01 0 01-7.868 6.0757A7.1642 7.1642 0 01158 97.4612V80.6724a7.1638 7.1638 0 016.0788-7.1846zM246.9222 92.9944a12.1584 12.1584 0 007.1842-11.0771v-3.7012a12.1494 12.1494 0 00-12.1494-12.1494H225a1 1 0 00-1 1v44a1 1 0 001 1h6a1 1 0 001-1v-17h6.6215l7.9154 17.4138a1 1 0 00.91.5862h6.5911a1 1 0 00.91-1.4138zm-.8158-11.0771a4.1538 4.1538 0 01-4.1489 4.1494h-9.8511v-12h9.8511a4.1538 4.1538 0 014.1489 4.1494zM289 66.0667h-26a1 1 0 00-1 1v44a1 1 0 001 1h26a1 1 0 001-1v-6a1 1 0 00-1-1h-19v-12h13a1 1 0 001-1v-6a1 1 0 00-1-1h-13v-10h19a1 1 0 001-1v-6a1 1 0 00-1-1zM327 66.0667h-6a1 1 0 00-1 1v22.6475a7.0066 7.0066 0 11-14 0V67.0667a1 1 0 00-1-1h-6a1 1 0 00-1 1v22.6475a15.0031 15.0031 0 1030 0V67.0667a1 1 0 00-1-1z"/>
    <rect class="cls-2" x="336" y="66.0667" width="8" height="38" rx="1"/>
  </g>
</svg>
