<svg id="Warstwa_1" data-name="Warstwa 1" xmlns="http://www.w3.org/2000/svg" {{ with .width }} width="{{ . }}"{{ end }}{{ with .height }} height="{{ . }}"{{ end }}{{ with .class }} class="{{ . }}"{{ end }} viewBox="0 0 312 115">
  <g id="Page-1" stroke="none" stroke-width="1" fill="currentColor" fill-rule="evenodd">
        <g id="coreui-base" fill="currentColor" fill-rule="nonzero">
            <g id="Group">
                <path d="M96,24.1244 L57,1.6077 C53.2871871,-0.535893539 48.7128129,-0.535893539 45,1.6077 L6,24.1243 C2.29226017,26.2730089 0.00693260339,30.2313486 0,34.5167 L0,79.55 C0.0068453397,83.8353487 2.29220098,87.7936989 6,89.9423 L45,112.459 C48.7128129,114.602594 53.2871871,114.602594 57,112.459 L96,89.9423 C99.707799,87.7936989 101.993155,83.8353487 102,79.55 L102,34.5167 C101.993093,30.2313678 99.707754,26.273046 96,24.1244 Z M94,79.55 C94,80.9790618 93.2376038,82.2995691 92,83.0141 L53,105.5308 C51.7623957,106.245331 50.2376043,106.245331 49,105.5308 L10,83.0141 C8.76239619,82.2995691 8,80.9790618 8,79.55 L8,34.5167 C8,33.0876382 8.76239619,31.7671309 10,31.0526 L49,8.5359 C50.2376043,7.82136882 51.7623957,7.82136882 53,8.5359 L92,31.0526 C93.2376038,31.7671309 94,33.0876382 94,34.5167 L94,79.55 Z" id="Shape"></path>
                <path d="M74.0216,70.0713 L71.1556,70.0713 C70.4827679,70.0712861 69.8208069,70.2410241 69.231,70.5648 L51.95,80.05 L32,68.5315 L32,45.554 L51.95,34.0354 L69.2394,43.4904 C69.8278903,43.8122245 70.4878603,43.9808965 71.1586,43.9809 L74.0218,43.9809 C75.1263695,43.9809 76.0218,43.0854695 76.0218,41.9809 L76.0218,39.2691 C76.0218,38.5380907 75.6230914,37.8652844 74.9818,37.5144 L55.793,27.0188 C53.3404536,25.684951 50.3714915,25.7190213 47.9502,27.1088 L28,38.6262 C25.5283249,40.0590349 24.0048565,42.6979488 24,45.5549 L24,68.5309 C24,71.3890593 25.5247614,74.0301204 28,75.4592 L47.95,86.9778 C50.3719859,88.3663725 53.3408028,88.399644 55.7933,87.0657 L74.9833,76.5345 C75.6233016,76.1832775 76.0210885,75.5112406 76.0211,74.7812 L76.0211,72.0712 C76.0210448,70.9668648 75.1259352,70.0715761 74.0216,70.0713 Z" id="Path"></path>
            </g>
            <g id="Group" transform="translate(117.000000, 33.000000)">
                <path d="M51.7447,0.4285 C43.4644161,0.437648027 36.754124,7.14771643 36.7447,15.428 L36.7447,32.7054 C36.7447,40.9896712 43.4604288,47.7054 51.7447,47.7054 C60.0289712,47.7054 66.7447,40.9896712 66.7447,32.7054 L66.7447,15.428 C66.735276,7.14771643 60.0249839,0.437648027 51.7447,0.4285 L51.7447,0.4285 Z M58.7447,32.7054 C58.7447,36.5713932 55.6106932,39.7054 51.7447,39.7054 C47.8787068,39.7054 44.7447,36.5713932 44.7447,32.7054 L44.7447,15.428 C44.7447,11.5620068 47.8787068,8.428 51.7447,8.428 C55.6106932,8.428 58.7447,11.5620068 58.7447,15.428 L58.7447,32.7054 Z" id="Shape"></path>
                <path d="M15.0788,8.4878 C16.9286881,8.24481332 18.799121,8.74931526 20.2759097,9.88958885 C21.7526984,11.0298624 22.7139842,12.7118169 22.9469,14.563 C23.0096446,15.0584416 23.4318031,15.4294333 23.9312,15.428 L29.9617,15.428 C30.2433078,15.4256279 30.5111615,15.3058932 30.700737,15.0976392 C30.8903124,14.8893852 30.9844237,14.6114912 30.9604,14.3309 C30.3547728,6.2061693 23.38159,0.0460556878 15.2442,0.4472 C7.16132117,0.999887718 0.913134758,7.76221317 1,15.8635 L1,32.27 C0.913131523,40.3712508 7.16126073,47.1335618 15.2441,47.6863 C23.3813933,48.08722 30.3543741,41.9271229 30.96,33.8025 C30.9840545,33.5219017 30.8899539,33.2439902 30.7003719,33.035729 C30.5107899,32.8274679 30.2429178,32.7077421 29.9613,32.7054 L23.9308,32.7054 C23.4314031,32.7039667 23.0092446,33.0749584 22.9465,33.5704 C22.7137048,35.4216544 21.7524848,37.1037177 20.2757044,38.2440932 C18.7989241,39.3844687 16.9284489,39.8890513 15.0785,39.6461 C11.5427997,39.1044016 8.94840923,36.0377838 9,32.4612 L9,15.6724 C8.94840694,12.0957688 11.543004,9.02918626 15.0788,8.4878 L15.0788,8.4878 Z" id="Path"></path>
                <path d="M97.9222,27.9944 C102.287745,26.0370903 105.09962,21.7015444 105.1064,16.9173 L105.1064,13.2161 C105.1064,6.50617166 99.6669283,1.0667 92.957,1.0667 L76,1.0667 C75.4477153,1.0667 75,1.51441525 75,2.0667 L75,46.0667 C75,46.6189847 75.4477153,47.0667 76,47.0667 L82,47.0667 C82.5522847,47.0667 83,46.6189847 83,46.0667 L83,29.0667 L89.6215,29.0667 L97.5369,46.4805 C97.6991143,46.8373746 98.0548886,47.0667 98.4469,47.0667 L105.038,47.0667 C105.377933,47.0667 105.694523,46.8937728 105.878505,46.6079325 C106.062488,46.3220923 106.088664,45.9623638 105.948,45.6529 L97.9222,27.9944 Z M97.1064,16.9173 C97.1039754,19.2077501 95.2479498,21.0639994 92.9575,21.0667 L83.1064,21.0667 L83.1064,9.0667 L92.9575,9.0667 C95.2479498,9.06940063 97.1039754,10.9256499 97.1064,13.2161 L97.1064,16.9173 Z" id="Shape"></path>
                <path d="M140,1.0667 L114,1.0667 C113.447715,1.0667 113,1.51441525 113,2.0667 L113,46.0667 C113,46.6189847 113.447715,47.0667 114,47.0667 L140,47.0667 C140.552285,47.0667 141,46.6189847 141,46.0667 L141,40.0667 C141,39.5144153 140.552285,39.0667 140,39.0667 L121,39.0667 L121,27.0667 L134,27.0667 C134.552285,27.0667 135,26.6189847 135,26.0667 L135,20.0667 C135,19.5144153 134.552285,19.0667 134,19.0667 L121,19.0667 L121,9.0667 L140,9.0667 C140.552285,9.0667 141,8.61898475 141,8.0667 L141,2.0667 C141,1.51441525 140.552285,1.0667 140,1.0667 Z" id="Path"></path>
                <path d="M178,1.0667 L172,1.0667 C171.447715,1.0667 171,1.51441525 171,2.0667 L171,24.7142 C171.111775,27.2875721 169.802567,29.7147754 167.590728,31.0348154 C165.378889,32.3548553 162.621111,32.3548553 160.409272,31.0348154 C158.197433,29.7147754 156.888225,27.2875721 157,24.7142 L157,2.0667 C157,1.51441525 156.552285,1.0667 156,1.0667 L150,1.0667 C149.447715,1.0667 149,1.51441525 149,2.0667 L149,24.7142 C148.889565,30.1458781 151.72415,35.2128902 156.410578,37.96111 C161.097007,40.7093297 166.902993,40.7093297 171.589422,37.96111 C176.27585,35.2128902 179.110435,30.1458781 179,24.7142 L179,2.0667 C179,1.51441525 178.552285,1.0667 178,1.0667 Z" id="Path"></path>
                <rect id="Rectangle" x="187" y="1.0667" width="8" height="38" rx="1"></rect>
            </g>
        </g>
    </g>
</svg>